<svg id="visual" viewBox="0 0 540 960" width="540" height="960" xmlns="http://www.w3.org/2000/svg" xmlns:xlink="http://www.w3.org/1999/xlink" version="1.1"><rect x="0" y="0" width="540" height="960" fill="#001220"></rect><defs><linearGradient id="grad1_0" x1="0%" y1="0%" x2="100%" y2="100%"><stop offset="30%" stop-color="#001220" stop-opacity="1"></stop><stop offset="70%" stop-color="#001220" stop-opacity="1"></stop></linearGradient></defs><defs><linearGradient id="grad2_0" x1="0%" y1="0%" x2="100%" y2="100%"><stop offset="30%" stop-color="#001220" stop-opacity="1"></stop><stop offset="70%" stop-color="#001220" stop-opacity="1"></stop></linearGradient></defs><g transform="translate(540, 0)"><path d="M0 216C-24.7 188 -49.3 160 -84 145.5C-118.7 131 -163.4 130 -187.1 108C-210.7 86 -213.4 43 -216 0L0 0Z" fill="#FBAE3C"></path></g><g transform="translate(0, 960)"><path d="M0 -216C24.4 -187.5 48.8 -159.1 83.5 -144.6C118.2 -130.2 163.3 -129.8 187.1 -108C210.9 -86.2 213.4 -43.1 216 0L0 0Z" fill="#FBAE3C"></path></g></svg>